<mxfile host="app.diagrams.net" modified="2024-05-02T08:11:02.502Z" agent="Mozilla/5.0 (X11; Ubuntu; Linux x86_64; rv:125.0) Gecko/20100101 Firefox/125.0" etag="2bO6pwpEI_xRIVz2mw2S" version="24.3.1" type="github">
  <diagram name="Page-1" id="pdHFE285W6R7LI2jNJFz">
    <mxGraphModel dx="1392" dy="747" grid="1" gridSize="10" guides="1" tooltips="1" connect="1" arrows="1" fold="1" page="1" pageScale="1" pageWidth="850" pageHeight="1100" math="0" shadow="0">
      <root>
        <mxCell id="0" />
        <mxCell id="1" parent="0" />
        <mxCell id="Zfrd7SapOl_mzalUZS_X-42" value="" style="group" vertex="1" connectable="0" parent="1">
          <mxGeometry x="170" y="190" width="605" height="560" as="geometry" />
        </mxCell>
        <mxCell id="Zfrd7SapOl_mzalUZS_X-5" style="edgeStyle=orthogonalEdgeStyle;rounded=0;orthogonalLoop=1;jettySize=auto;html=1;exitX=1;exitY=0.5;exitDx=0;exitDy=0;" edge="1" parent="Zfrd7SapOl_mzalUZS_X-42" source="Zfrd7SapOl_mzalUZS_X-2" target="Zfrd7SapOl_mzalUZS_X-4">
          <mxGeometry relative="1" as="geometry" />
        </mxCell>
        <mxCell id="Zfrd7SapOl_mzalUZS_X-2" value="&lt;font style=&quot;font-size: 14px;&quot;&gt;Download .tiff image from Google Earth Pro&lt;/font&gt;" style="text;html=1;align=center;verticalAlign=middle;whiteSpace=wrap;rounded=0;fillColor=#ffe6cc;strokeColor=#d79b00;" vertex="1" parent="Zfrd7SapOl_mzalUZS_X-42">
          <mxGeometry x="20" y="70" width="130" height="70" as="geometry" />
        </mxCell>
        <mxCell id="Zfrd7SapOl_mzalUZS_X-9" value="" style="edgeStyle=orthogonalEdgeStyle;rounded=0;orthogonalLoop=1;jettySize=auto;html=1;" edge="1" parent="Zfrd7SapOl_mzalUZS_X-42" source="Zfrd7SapOl_mzalUZS_X-4" target="Zfrd7SapOl_mzalUZS_X-8">
          <mxGeometry relative="1" as="geometry" />
        </mxCell>
        <mxCell id="Zfrd7SapOl_mzalUZS_X-4" value="&lt;font style=&quot;font-size: 14px;&quot;&gt;Multiple Crops generated from single large image&lt;/font&gt;" style="text;html=1;align=center;verticalAlign=middle;whiteSpace=wrap;rounded=0;fillColor=#d5e8d4;strokeColor=#82b366;" vertex="1" parent="Zfrd7SapOl_mzalUZS_X-42">
          <mxGeometry x="210" y="70" width="130" height="70" as="geometry" />
        </mxCell>
        <mxCell id="Zfrd7SapOl_mzalUZS_X-6" value="&lt;div&gt;Image size: 5627 x 4800 pixels&lt;/div&gt;&lt;div&gt;&lt;br&gt;&lt;/div&gt;" style="text;html=1;align=center;verticalAlign=middle;whiteSpace=wrap;rounded=0;" vertex="1" parent="Zfrd7SapOl_mzalUZS_X-42">
          <mxGeometry x="50" y="40" width="190" height="30" as="geometry" />
        </mxCell>
        <mxCell id="Zfrd7SapOl_mzalUZS_X-36" style="edgeStyle=orthogonalEdgeStyle;rounded=0;orthogonalLoop=1;jettySize=auto;html=1;exitX=0.5;exitY=1;exitDx=0;exitDy=0;entryX=0.5;entryY=0;entryDx=0;entryDy=0;" edge="1" parent="Zfrd7SapOl_mzalUZS_X-42" source="Zfrd7SapOl_mzalUZS_X-8" target="Zfrd7SapOl_mzalUZS_X-33">
          <mxGeometry relative="1" as="geometry" />
        </mxCell>
        <mxCell id="Zfrd7SapOl_mzalUZS_X-8" value="&lt;font style=&quot;font-size: 14px;&quot;&gt;Data Annotation (label Aircraft classes) &lt;/font&gt;" style="whiteSpace=wrap;html=1;fillColor=#e1d5e7;strokeColor=#9673a6;rounded=0;" vertex="1" parent="Zfrd7SapOl_mzalUZS_X-42">
          <mxGeometry x="390" y="72.5" width="120" height="65" as="geometry" />
        </mxCell>
        <mxCell id="Zfrd7SapOl_mzalUZS_X-10" value="&lt;div&gt;Crop size: 608 x 608 pixels&lt;/div&gt;&lt;div&gt;&lt;br&gt;&lt;/div&gt;" style="text;html=1;align=center;verticalAlign=middle;whiteSpace=wrap;rounded=0;" vertex="1" parent="Zfrd7SapOl_mzalUZS_X-42">
          <mxGeometry x="300" y="40" width="190" height="30" as="geometry" />
        </mxCell>
        <mxCell id="Zfrd7SapOl_mzalUZS_X-19" value="" style="edgeStyle=orthogonalEdgeStyle;rounded=0;orthogonalLoop=1;jettySize=auto;html=1;" edge="1" parent="Zfrd7SapOl_mzalUZS_X-42" source="Zfrd7SapOl_mzalUZS_X-16" target="Zfrd7SapOl_mzalUZS_X-18">
          <mxGeometry relative="1" as="geometry" />
        </mxCell>
        <mxCell id="Zfrd7SapOl_mzalUZS_X-16" value="&lt;font style=&quot;font-size: 14px;&quot;&gt;DL Model training on labelled data&lt;/font&gt;" style="rhombus;whiteSpace=wrap;html=1;fillColor=#fff2cc;strokeColor=#d6b656;rounded=0;" vertex="1" parent="Zfrd7SapOl_mzalUZS_X-42">
          <mxGeometry x="385" y="270" width="130" height="130" as="geometry" />
        </mxCell>
        <mxCell id="Zfrd7SapOl_mzalUZS_X-29" value="" style="edgeStyle=orthogonalEdgeStyle;rounded=0;orthogonalLoop=1;jettySize=auto;html=1;" edge="1" parent="Zfrd7SapOl_mzalUZS_X-42" source="Zfrd7SapOl_mzalUZS_X-18" target="Zfrd7SapOl_mzalUZS_X-28">
          <mxGeometry relative="1" as="geometry" />
        </mxCell>
        <mxCell id="Zfrd7SapOl_mzalUZS_X-30" style="edgeStyle=orthogonalEdgeStyle;rounded=0;orthogonalLoop=1;jettySize=auto;html=1;exitX=0;exitY=0.25;exitDx=0;exitDy=0;entryX=0.5;entryY=1;entryDx=0;entryDy=0;" edge="1" parent="Zfrd7SapOl_mzalUZS_X-42" source="Zfrd7SapOl_mzalUZS_X-18" target="Zfrd7SapOl_mzalUZS_X-2">
          <mxGeometry relative="1" as="geometry">
            <Array as="points">
              <mxPoint x="390" y="430" />
              <mxPoint x="85" y="430" />
            </Array>
          </mxGeometry>
        </mxCell>
        <mxCell id="Zfrd7SapOl_mzalUZS_X-18" value="&lt;font style=&quot;font-size: 14px;&quot;&gt;Performance evaluation on unseen data&lt;/font&gt;" style="whiteSpace=wrap;html=1;fillColor=#f8cecc;strokeColor=#b85450;rounded=0;" vertex="1" parent="Zfrd7SapOl_mzalUZS_X-42">
          <mxGeometry x="390" y="440" width="120" height="60" as="geometry" />
        </mxCell>
        <mxCell id="Zfrd7SapOl_mzalUZS_X-21" value="&lt;font style=&quot;font-size: 14px;&quot;&gt;&lt;b&gt;Data Pre-processing&lt;/b&gt;&lt;/font&gt;" style="text;html=1;align=center;verticalAlign=middle;whiteSpace=wrap;rounded=0;" vertex="1" parent="Zfrd7SapOl_mzalUZS_X-42">
          <mxGeometry x="200" width="140" height="30" as="geometry" />
        </mxCell>
        <mxCell id="Zfrd7SapOl_mzalUZS_X-22" value="Satisfactory" style="text;html=1;align=center;verticalAlign=middle;whiteSpace=wrap;rounded=0;" vertex="1" parent="Zfrd7SapOl_mzalUZS_X-42">
          <mxGeometry x="240" y="470" width="60" height="30" as="geometry" />
        </mxCell>
        <mxCell id="Zfrd7SapOl_mzalUZS_X-23" value="Not Satisfactory" style="text;html=1;align=center;verticalAlign=middle;whiteSpace=wrap;rounded=0;" vertex="1" parent="Zfrd7SapOl_mzalUZS_X-42">
          <mxGeometry x="90" y="230" width="60" height="30" as="geometry" />
        </mxCell>
        <mxCell id="Zfrd7SapOl_mzalUZS_X-28" value="&lt;font style=&quot;font-size: 14px;&quot;&gt;Plot Performance Metrics for each Aircraft class&lt;/font&gt;" style="whiteSpace=wrap;html=1;fillColor=#f8cecc;strokeColor=#b85450;rounded=0;" vertex="1" parent="Zfrd7SapOl_mzalUZS_X-42">
          <mxGeometry x="20" y="440" width="120" height="60" as="geometry" />
        </mxCell>
        <mxCell id="Zfrd7SapOl_mzalUZS_X-37" style="edgeStyle=orthogonalEdgeStyle;rounded=0;orthogonalLoop=1;jettySize=auto;html=1;exitX=0.5;exitY=1;exitDx=0;exitDy=0;" edge="1" parent="Zfrd7SapOl_mzalUZS_X-42" source="Zfrd7SapOl_mzalUZS_X-33" target="Zfrd7SapOl_mzalUZS_X-16">
          <mxGeometry relative="1" as="geometry" />
        </mxCell>
        <mxCell id="Zfrd7SapOl_mzalUZS_X-33" value="&lt;font style=&quot;font-size: 14px;&quot;&gt;Estimate optimal hyper parameters for training a DL model&lt;/font&gt;" style="whiteSpace=wrap;html=1;fillColor=#fff2cc;strokeColor=#d6b656;rounded=0;" vertex="1" parent="Zfrd7SapOl_mzalUZS_X-42">
          <mxGeometry x="390" y="170" width="120" height="80" as="geometry" />
        </mxCell>
        <mxCell id="Zfrd7SapOl_mzalUZS_X-38" value="&lt;hr&gt;" style="rounded=0;whiteSpace=wrap;html=1;fillColor=none;dashed=1;dashPattern=8 8;strokeColor=#7EA6E0;" vertex="1" parent="Zfrd7SapOl_mzalUZS_X-42">
          <mxGeometry x="370" y="160" width="180" height="250" as="geometry" />
        </mxCell>
        <mxCell id="Zfrd7SapOl_mzalUZS_X-39" value="&lt;b&gt;&lt;font style=&quot;font-size: 14px;&quot;&gt;Model Training&lt;/font&gt;&lt;/b&gt;" style="text;html=1;align=center;verticalAlign=middle;whiteSpace=wrap;rounded=0;" vertex="1" parent="Zfrd7SapOl_mzalUZS_X-42">
          <mxGeometry x="545" y="240" width="60" height="40" as="geometry" />
        </mxCell>
        <mxCell id="Zfrd7SapOl_mzalUZS_X-41" value="&lt;font style=&quot;font-size: 14px;&quot;&gt;&lt;b&gt;&lt;font style=&quot;font-size: 14px;&quot;&gt;Evaluatio&lt;/font&gt;n&lt;/b&gt;&lt;/font&gt;" style="text;html=1;align=center;verticalAlign=middle;whiteSpace=wrap;rounded=0;" vertex="1" parent="Zfrd7SapOl_mzalUZS_X-42">
          <mxGeometry x="230" y="520" width="70" height="40" as="geometry" />
        </mxCell>
        <mxCell id="Zfrd7SapOl_mzalUZS_X-40" value="&lt;hr&gt;" style="rounded=0;whiteSpace=wrap;html=1;fillColor=none;dashed=1;dashPattern=8 8;strokeColor=#7EA6E0;" vertex="1" parent="Zfrd7SapOl_mzalUZS_X-42">
          <mxGeometry x="10" y="423.13" width="540" height="93.75" as="geometry" />
        </mxCell>
        <mxCell id="Zfrd7SapOl_mzalUZS_X-20" value="&lt;hr&gt;" style="rounded=0;whiteSpace=wrap;html=1;fillColor=none;dashed=1;dashPattern=8 8;strokeColor=#7EA6E0;" vertex="1" parent="Zfrd7SapOl_mzalUZS_X-42">
          <mxGeometry x="10" y="20" width="540" height="127.5" as="geometry" />
        </mxCell>
      </root>
    </mxGraphModel>
  </diagram>
</mxfile>
